<svg width="32" height="32" viewBox="0 0 32 32" fill="none" xmlns="http://www.w3.org/2000/svg">
<path d="M25.0089 18.883C24.9377 18.8831 24.8674 18.868 24.8025 18.8386C24.7377 18.8093 24.6799 18.7665 24.6329 18.713C24.1167 18.1251 23.481 17.6541 22.7683 17.3313C22.0556 17.0085 21.2823 16.8413 20.4999 16.841C19.3299 16.841 18.1669 17.225 17.2269 17.922C17.1742 17.9611 17.1143 17.9894 17.0506 18.0053C16.9869 18.0212 16.9208 18.0245 16.8559 18.0148C16.7909 18.0052 16.7286 17.9828 16.6723 17.949C16.616 17.9153 16.567 17.8708 16.5279 17.818C16.4888 17.7653 16.4605 17.7054 16.4446 17.6417C16.4287 17.5781 16.4255 17.5119 16.4351 17.447C16.4448 17.3821 16.4671 17.3197 16.5009 17.2635C16.5347 17.2072 16.5792 17.1581 16.6319 17.119C17.7529 16.2928 19.1082 15.8454 20.5009 15.842C22.3709 15.842 24.1509 16.648 25.3859 18.053C25.449 18.1255 25.4899 18.2146 25.5038 18.3096C25.5177 18.4047 25.5039 18.5018 25.4642 18.5892C25.4245 18.6767 25.3604 18.7509 25.2797 18.803C25.199 18.8551 25.105 18.8829 25.0089 18.883Z" fill="#F04C4D"/>
<path d="M13.397 14.461C13.3123 14.461 13.229 14.4395 13.1548 14.3985C13.0807 14.3575 13.0183 14.2983 12.9733 14.2265C12.9283 14.1547 12.9023 14.0727 12.8977 13.9881C12.8931 13.9036 12.91 13.8192 12.947 13.743C13.31 12.9946 13.4991 12.1738 13.5 11.342C13.5 10.378 13.245 9.42598 12.764 8.59198C12.7306 8.5351 12.7089 8.47218 12.6999 8.40685C12.691 8.34151 12.6951 8.27506 12.7119 8.21131C12.7288 8.14756 12.7581 8.08777 12.7981 8.03539C12.8382 7.98301 12.8882 7.93907 12.9453 7.9061C13.0024 7.87313 13.0655 7.85178 13.1309 7.84328C13.1963 7.83478 13.2627 7.8393 13.3263 7.85658C13.39 7.87386 13.4495 7.90355 13.5017 7.94395C13.5538 7.98435 13.5974 8.03466 13.63 8.09198C14.1604 9.01189 14.4576 10.0476 14.4958 11.1088C14.534 12.17 14.3119 13.2243 13.849 14.18C13.8074 14.2644 13.7431 14.3355 13.6632 14.3852C13.5833 14.4348 13.4911 14.4611 13.397 14.461Z" fill="#499ED7"/>
<path d="M4.81889 25.849L11.2239 13.622C11.2967 13.4831 11.4011 13.3632 11.5288 13.2721C11.6565 13.181 11.8038 13.1211 11.9589 13.0975C12.114 13.0738 12.2724 13.087 12.4215 13.1359C12.5705 13.1848 12.706 13.2681 12.8169 13.379L17.9639 18.526C18.0748 18.6369 18.1581 18.7724 18.207 18.9214C18.2559 19.0705 18.2691 19.2289 18.2454 19.384C18.2218 19.5391 18.162 19.6864 18.0708 19.8141C17.9797 19.9418 17.8598 20.0462 17.7209 20.119L5.49389 26.524C5.39949 26.5735 5.29175 26.5916 5.18638 26.5755C5.08101 26.5594 4.98353 26.5101 4.90817 26.4348C4.8328 26.3594 4.78349 26.2619 4.76743 26.1565C4.75137 26.0512 4.7694 25.9434 4.81889 25.849Z" fill="#FFCC5C"/>
<path d="M17.9629 18.526L12.8159 13.379C12.705 13.2681 12.5695 13.1848 12.4205 13.1359C12.2714 13.087 12.113 13.0738 11.9579 13.0975C11.8028 13.1211 11.6555 13.181 11.5278 13.2721C11.4001 13.3632 11.2957 13.4831 11.2229 13.622L11.1669 13.73L13.0399 15.603C13.3727 15.9358 13.6225 16.3421 13.7693 16.7892C13.916 17.2364 13.9555 17.7118 13.8845 18.177C13.8135 18.6422 13.6341 19.0842 13.3608 19.4672C13.0874 19.8503 12.7278 20.1637 12.3109 20.382L5.93289 23.723L4.81889 25.849C4.7694 25.9434 4.75137 26.0512 4.76743 26.1565C4.78349 26.2619 4.8328 26.3594 4.90817 26.4348C4.98353 26.5101 5.08101 26.5594 5.18638 26.5755C5.29175 26.5916 5.39949 26.5735 5.49389 26.524L17.7209 20.119C17.8598 20.0461 17.9796 19.9416 18.0706 19.8139C18.1616 19.6862 18.2213 19.5388 18.2449 19.3837C18.2684 19.2287 18.2552 19.0703 18.2062 18.9213C18.1572 18.7723 18.0739 18.6369 17.9629 18.526Z" fill="#F7B546"/>
<path d="M7.93034 25.247L9.18334 24.591L5.99834 23.596L5.52734 24.496L7.93034 25.247ZM6.78034 22.103L11.2603 23.503L12.5133 22.847L7.25234 21.203L6.78034 22.103ZM8.03334 19.71L14.5893 21.759L15.8423 21.103L8.50534 18.81L8.03334 19.71ZM9.28734 17.318L17.8603 19.997C17.9997 19.8886 18.1069 19.7443 18.1705 19.5796C18.2341 19.4148 18.2517 19.2359 18.2213 19.062L9.75934 16.418L9.28734 17.318ZM10.5403 14.926L16.1003 16.663L14.5763 15.14L11.0113 14.026L10.5403 14.926Z" fill="#F47423"/>
<path d="M18.2203 19.062L13.9023 17.713C13.9033 18.053 13.8513 18.389 13.7403 18.71L17.8603 19.997C18.0003 19.885 18.1003 19.745 18.1633 19.592L18.1773 19.557C18.2337 19.3983 18.2485 19.2279 18.2203 19.062ZM12.5133 22.847L9.43834 21.886L8.18534 22.542L11.2603 23.503L11.5523 23.35L12.5133 22.847ZM13.0393 15.603C13.0823 15.646 13.1083 15.696 13.1473 15.741L16.0993 16.664L14.5753 15.14L11.6663 14.231L13.0393 15.603ZM5.52734 24.496L7.93034 25.247L9.18334 24.591L6.10834 23.63L5.93234 23.723L5.52734 24.496ZM12.3103 20.382L11.5153 20.799L14.5903 21.76L15.8433 21.104L12.6933 20.12C12.5683 20.21 12.4513 20.308 12.3103 20.382Z" fill="#ED5D25"/>
<path d="M7.99908 12.842C7.70997 12.841 7.42732 12.7565 7.18504 12.5988C6.94276 12.441 6.75116 12.2167 6.63322 11.9528C6.51529 11.6888 6.47603 11.3964 6.52018 11.1107C6.56432 10.825 6.68998 10.5581 6.88208 10.342C6.63486 10.0676 6.49805 9.71138 6.49805 9.34204C6.49805 8.9727 6.63486 8.61645 6.88208 8.34204C6.68998 8.12598 6.56432 7.85908 6.52018 7.57337C6.47603 7.28765 6.51529 6.99527 6.63322 6.73131C6.75116 6.46736 6.94276 6.24305 7.18504 6.08531C7.42732 5.92757 7.70997 5.8431 7.99908 5.84204C8.13168 5.84204 8.25886 5.89472 8.35263 5.98849C8.4464 6.08226 8.49908 6.20943 8.49908 6.34204C8.49908 6.47465 8.4464 6.60183 8.35263 6.69559C8.25886 6.78936 8.13168 6.84204 7.99908 6.84204C7.86647 6.84204 7.73929 6.89472 7.64552 6.98849C7.55175 7.08226 7.49908 7.20943 7.49908 7.34204C7.49908 7.47465 7.55175 7.60183 7.64552 7.69559C7.73929 7.78936 7.86647 7.84204 7.99908 7.84204C8.13168 7.84204 8.25886 7.89472 8.35263 7.98849C8.4464 8.08226 8.49908 8.20943 8.49908 8.34204C8.49908 8.47465 8.4464 8.60183 8.35263 8.69559C8.25886 8.78936 8.13168 8.84204 7.99908 8.84204C7.86647 8.84204 7.73929 8.89472 7.64552 8.98849C7.55175 9.08226 7.49908 9.20943 7.49908 9.34204C7.49908 9.47465 7.55175 9.60183 7.64552 9.69559C7.73929 9.78936 7.86647 9.84204 7.99908 9.84204C8.13168 9.84204 8.25886 9.89472 8.35263 9.98849C8.4464 10.0823 8.49908 10.2094 8.49908 10.342C8.49908 10.4746 8.4464 10.6018 8.35263 10.6956C8.25886 10.7894 8.13168 10.842 7.99908 10.842C7.86647 10.842 7.73929 10.8947 7.64552 10.9885C7.55175 11.0823 7.49908 11.2094 7.49908 11.342C7.49908 11.4746 7.55175 11.6018 7.64552 11.6956C7.73929 11.7894 7.86647 11.842 7.99908 11.842C8.13168 11.842 8.25886 11.8947 8.35263 11.9885C8.4464 12.0823 8.49908 12.2094 8.49908 12.342C8.49908 12.4746 8.4464 12.6018 8.35263 12.6956C8.25886 12.7894 8.13168 12.842 7.99908 12.842Z" fill="#92CA62"/>
<path d="M8.03242 8.83503C8.12896 8.82897 8.22159 8.79463 8.29876 8.73631C8.37593 8.67799 8.43424 8.59825 8.46642 8.50703C8.36999 8.51348 8.27755 8.54795 8.20044 8.60622C8.12334 8.6645 8.06494 8.74402 8.03242 8.83503ZM8.46642 6.50703C8.36999 6.51348 8.27755 6.54795 8.20044 6.60622C8.12334 6.6645 8.06494 6.74402 8.03242 6.83503C8.12896 6.82897 8.22159 6.79463 8.29876 6.73631C8.37593 6.67799 8.43424 6.59825 8.46642 6.50703ZM6.99942 11C6.99942 10.616 7.14442 10.266 7.38242 10C7.1352 9.72563 6.99839 9.36938 6.99839 9.00003C6.99839 8.63069 7.1352 8.27444 7.38242 8.00003C7.12875 7.71773 6.99203 7.34947 7.00002 6.97003C7.008 6.59059 7.1601 6.22841 7.42542 5.95703C7.20443 6.04905 7.00865 6.19259 6.85442 6.37568C6.70019 6.55876 6.59199 6.77608 6.53885 7.0095C6.48571 7.24291 6.48917 7.48565 6.54893 7.71746C6.6087 7.94926 6.72304 8.16341 6.88242 8.34203C6.635 8.61633 6.49805 8.97263 6.49805 9.34203C6.49805 9.71144 6.635 10.0677 6.88242 10.342C6.69033 10.5581 6.56466 10.825 6.52052 11.1107C6.47638 11.3964 6.51563 11.6888 6.63357 11.9528C6.7515 12.2167 6.94311 12.441 7.18539 12.5988C7.42767 12.7565 7.71032 12.841 7.99942 12.842C8.10402 12.8415 8.20575 12.8078 8.29001 12.7458C8.37427 12.6838 8.43673 12.5967 8.46842 12.497C8.07651 12.4889 7.70335 12.3277 7.42879 12.048C7.15424 11.7682 7.00012 11.392 6.99942 11Z" fill="#71BC58"/>
<path d="M8.0332 10.835C8.12957 10.8287 8.22198 10.7943 8.29895 10.736C8.37593 10.6777 8.43409 10.598 8.4662 10.507C8.36991 10.5135 8.27762 10.548 8.20069 10.6063C8.12376 10.6645 8.06554 10.744 8.0332 10.835Z" fill="#71BC58"/>
<path d="M21.7312 13.9009C21.3472 13.9009 20.9632 13.7549 20.6702 13.4629C20.5763 13.3692 20.5235 13.242 20.5234 13.1093C20.5233 12.9766 20.576 12.8493 20.6697 12.7554C20.7635 12.6616 20.8907 12.6088 21.0234 12.6087C21.156 12.6086 21.2833 12.6612 21.3772 12.7549C21.4237 12.8014 21.4789 12.8382 21.5396 12.8633C21.6003 12.8884 21.6654 12.9013 21.7311 12.9012C21.7968 12.9012 21.8618 12.8882 21.9225 12.863C21.9832 12.8378 22.0383 12.8009 22.0847 12.7544C22.1311 12.708 22.168 12.6528 22.193 12.5921C22.2181 12.5314 22.231 12.4663 22.231 12.4006C22.2309 12.3349 22.218 12.2699 22.1928 12.2092C22.1676 12.1485 22.1307 12.0934 22.0842 12.0469C22.0374 12.0006 22.0003 11.9455 21.9749 11.8847C21.9495 11.824 21.9365 11.7588 21.9365 11.6929C21.9365 11.6271 21.9495 11.5619 21.9749 11.5012C22.0003 11.4404 22.0374 11.3853 22.0842 11.3389C22.178 11.2452 22.3051 11.1926 22.4377 11.1926C22.5703 11.1926 22.6975 11.2452 22.7912 11.3389C22.8855 11.43 23.0118 11.4804 23.1429 11.4793C23.274 11.4781 23.3994 11.4256 23.4921 11.3329C23.5848 11.2402 23.6374 11.1147 23.6386 10.9836C23.6397 10.8526 23.5893 10.7262 23.4982 10.6319C23.4514 10.5856 23.4143 10.5305 23.3889 10.4697C23.3635 10.409 23.3505 10.3438 23.3505 10.2779C23.3505 10.2121 23.3635 10.1469 23.3889 10.0862C23.4143 10.0254 23.4514 9.97026 23.4982 9.92395C23.592 9.83021 23.7191 9.77756 23.8517 9.77756C23.9843 9.77756 24.1115 9.83021 24.2052 9.92395C24.3007 10.0144 24.4272 10.0648 24.5587 10.0648C24.6902 10.0648 24.8167 10.0144 24.9122 9.92395C24.9588 9.8776 24.9958 9.82242 25.0208 9.76164C25.0459 9.70086 25.0586 9.63569 25.0582 9.56995C25.0585 9.50437 25.0457 9.4394 25.0206 9.3788C24.9956 9.3182 24.9587 9.26318 24.9122 9.21695C24.8657 9.17053 24.8288 9.1154 24.8037 9.05472C24.7785 8.99404 24.7655 8.929 24.7654 8.8633C24.7654 8.7976 24.7783 8.73254 24.8034 8.67183C24.8285 8.61111 24.8653 8.55594 24.9117 8.50945C24.9581 8.46296 25.0133 8.42607 25.0739 8.40089C25.1346 8.3757 25.1997 8.36272 25.2654 8.36267C25.3311 8.36262 25.3961 8.37552 25.4568 8.40062C25.5176 8.42572 25.5727 8.46253 25.6192 8.50895C25.9022 8.79195 26.0582 9.16895 26.0582 9.56995C26.0585 9.95353 25.9118 10.3226 25.6482 10.6013C25.3846 10.88 25.0242 11.047 24.6412 11.0679C24.6217 11.4369 24.4664 11.7856 24.2051 12.0469C23.9439 12.3081 23.5952 12.4635 23.2262 12.4829C23.2062 12.8389 23.0612 13.1899 22.7892 13.4609C22.5002 13.7549 22.1152 13.9009 21.7312 13.9009Z" fill="#AE89BE"/>
<path d="M22.2499 11.342C22.3316 11.4221 22.4386 11.4714 22.5526 11.4814C22.6665 11.4915 22.7805 11.4616 22.8749 11.397C22.8479 11.379 22.8169 11.367 22.7929 11.342C22.7112 11.2618 22.6042 11.2126 22.4903 11.2025C22.3763 11.1925 22.2623 11.2223 22.1679 11.287C22.1949 11.305 22.2259 11.318 22.2499 11.342ZM23.6639 9.92799C23.7469 10.0058 23.8538 10.0534 23.9672 10.063C24.0806 10.0726 24.1939 10.0437 24.2889 9.98098C24.2609 9.96298 24.2309 9.95199 24.2069 9.92799C24.1252 9.84785 24.0182 9.79855 23.9043 9.78852C23.7903 9.77849 23.6763 9.80835 23.5819 9.87298C23.6089 9.89098 23.6399 9.90399 23.6639 9.92799ZM20.8359 12.756C20.9176 12.8361 21.0246 12.8854 21.1386 12.8954C21.2525 12.9055 21.3665 12.8756 21.4609 12.811C21.4339 12.793 21.4029 12.781 21.3789 12.756C21.297 12.6762 21.19 12.6272 21.0761 12.6173C20.9621 12.6075 20.8483 12.6374 20.7539 12.702C20.7809 12.72 20.8119 12.732 20.8359 12.756Z" fill="#9676B5"/>
<path d="M25.621 8.51304C25.5391 8.43323 25.4321 8.38424 25.3181 8.3744C25.2042 8.36455 25.0904 8.39446 24.996 8.45904C25.023 8.47704 25.054 8.48904 25.078 8.51304C25.361 8.79604 25.517 9.17305 25.517 9.57405C25.5173 9.95762 25.3706 10.3267 25.107 10.6054C24.8434 10.8841 24.483 11.0511 24.1 11.072C24.0805 11.441 23.9252 11.7897 23.6639 12.051C23.4026 12.3122 23.0539 12.4676 22.685 12.487C22.665 12.843 22.52 13.194 22.248 13.465C22.026 13.687 21.747 13.797 21.459 13.85C21.55 13.867 21.638 13.903 21.73 13.903C22.1135 13.9039 22.4828 13.7574 22.7615 13.4939C23.0403 13.2305 23.2072 12.87 23.228 12.487C23.5968 12.4671 23.9452 12.3116 24.2064 12.0505C24.4676 11.7893 24.6231 11.4409 24.643 11.072C25.0261 11.0513 25.3866 10.8844 25.6502 10.6057C25.9139 10.3269 26.0605 9.9577 26.06 9.57405C26.0608 9.37692 26.0224 9.18161 25.947 8.99946C25.8717 8.81732 25.7608 8.65197 25.621 8.51304Z" fill="#9676B5"/>
<path d="M16.1751 25.802C16.0884 25.802 16.0031 25.7794 15.9277 25.7365C15.8523 25.6935 15.7894 25.6317 15.7451 25.557C15.5964 25.3081 15.5232 25.0213 15.5343 24.7316C15.5454 24.4418 15.6403 24.1615 15.8076 23.9247C15.9749 23.6879 16.2073 23.5047 16.4767 23.3973C16.7461 23.29 17.0408 23.2631 17.3251 23.32C17.4321 22.98 17.6601 22.676 17.9901 22.481C18.3191 22.285 18.6911 22.231 19.0451 22.3C19.1551 21.947 19.3891 21.651 19.7101 21.461C19.8793 21.3597 20.067 21.2931 20.2622 21.2652C20.4574 21.2372 20.6563 21.2483 20.8471 21.298C21.2351 21.397 21.5621 21.642 21.7661 21.986C21.7996 22.0426 21.8216 22.1053 21.8309 22.1704C21.8402 22.2355 21.8365 22.3018 21.8202 22.3655C21.8039 22.4292 21.7751 22.489 21.7356 22.5416C21.6962 22.5942 21.6467 22.6385 21.5901 22.672C21.5335 22.7055 21.4709 22.7275 21.4058 22.7368C21.3407 22.7461 21.2744 22.7425 21.2107 22.7261C21.147 22.7098 21.0871 22.681 21.0345 22.6416C20.9819 22.6021 20.9376 22.5526 20.9041 22.496C20.8542 22.4103 20.7798 22.3414 20.6904 22.2982C20.601 22.2551 20.5008 22.2396 20.4026 22.2538C20.3044 22.268 20.2126 22.3112 20.1392 22.3778C20.0657 22.4445 20.0138 22.5317 19.9901 22.628C19.9738 22.6915 19.9703 22.7577 19.9797 22.8226C19.9891 22.8874 20.0114 22.9498 20.0451 23.006C20.0999 23.1192 20.1103 23.2488 20.0741 23.3693C20.0379 23.4897 19.9578 23.5922 19.8497 23.6564C19.7416 23.7206 19.6134 23.7419 19.4903 23.7161C19.3672 23.6903 19.2583 23.6193 19.1851 23.517C19.1171 23.4031 19.0068 23.3208 18.8782 23.288C18.7497 23.2552 18.6134 23.2746 18.4991 23.342C18.3852 23.4101 18.3029 23.5204 18.2701 23.6489C18.2373 23.7775 18.2567 23.9138 18.3241 24.028C18.3918 24.1423 18.4112 24.2788 18.3782 24.4075C18.3452 24.5361 18.2624 24.6464 18.1481 24.714C18.0338 24.7817 17.8973 24.8011 17.7687 24.7681C17.64 24.7351 17.5298 24.6523 17.4621 24.538C17.4291 24.4813 17.3849 24.4318 17.3324 24.3925C17.2798 24.3531 17.2199 24.3248 17.1561 24.309C17.0604 24.2849 16.9597 24.2895 16.8667 24.3225C16.7737 24.3555 16.6925 24.4152 16.6333 24.4942C16.5742 24.5733 16.5398 24.668 16.5344 24.7666C16.529 24.8651 16.5529 24.963 16.6031 25.048C16.6481 25.1237 16.6723 25.21 16.6732 25.298C16.6741 25.3861 16.6516 25.4728 16.6082 25.5494C16.5647 25.6259 16.5017 25.6897 16.4257 25.734C16.3496 25.7784 16.2632 25.8019 16.1751 25.802Z" fill="#499ED7"/>
<path d="M16.3094 25.5579C16.2086 25.3886 16.1421 25.201 16.1138 25.006C16.0855 24.8109 16.096 24.6122 16.1447 24.4212C16.1934 24.2302 16.2793 24.0507 16.3975 23.8929C16.5157 23.7352 16.6638 23.6023 16.8334 23.5019C16.9854 23.4109 17.1514 23.3529 17.3214 23.3209C16.9602 23.2478 16.5846 23.3123 16.2684 23.5019C16.0987 23.602 15.9505 23.7348 15.8324 23.8925C15.7143 24.0503 15.6287 24.2299 15.5804 24.4209C15.5312 24.6119 15.5203 24.8107 15.5485 25.0059C15.5766 25.2011 15.6432 25.3887 15.7444 25.5579C15.8125 25.6716 15.9226 25.7537 16.0509 25.7865C16.1792 25.8193 16.3153 25.8 16.4294 25.7329C16.4424 25.7259 16.4484 25.7129 16.4604 25.7049C16.4005 25.6669 16.3491 25.6168 16.3094 25.5579ZM18.0284 24.5369C17.9954 24.4802 17.9513 24.4307 17.8987 24.3914C17.8461 24.352 17.7862 24.3237 17.7224 24.3079C17.6588 24.2914 17.5925 24.2878 17.5274 24.2972C17.4623 24.3067 17.3998 24.329 17.3434 24.3629C17.3334 24.3689 17.3274 24.3789 17.3184 24.3849C17.3754 24.4249 17.4264 24.4749 17.4624 24.5369C17.5303 24.651 17.6406 24.7335 17.7692 24.7664C17.8979 24.7992 18.0342 24.7796 18.1484 24.7119C18.1584 24.7059 18.1614 24.6949 18.1714 24.6889C18.1136 24.649 18.0648 24.5972 18.0284 24.5369ZM17.8904 23.3209C17.9974 22.9809 18.2254 22.6769 18.5554 22.4819C18.8844 22.2859 19.2564 22.2319 19.6104 22.3009C19.6905 22.0436 19.8393 21.8129 20.0407 21.6337C20.2421 21.4545 20.4885 21.3336 20.7534 21.2839C20.3934 21.2119 20.0194 21.276 19.7038 21.4639C19.3883 21.6518 19.1537 21.95 19.0454 22.3009C18.6835 22.2278 18.3073 22.2924 17.9904 22.4819C17.6604 22.6779 17.4334 22.9799 17.3264 23.3199C17.5104 23.2849 17.7004 23.2819 17.8904 23.3209ZM19.7504 23.5169C19.6824 23.4031 19.5721 23.3207 19.4435 23.2879C19.315 23.2551 19.1787 23.2746 19.0644 23.3419C19.0544 23.3479 19.0484 23.3579 19.0394 23.3649C19.0964 23.4049 19.1464 23.4539 19.1844 23.5179C19.2523 23.6318 19.3625 23.7141 19.4909 23.7467C19.6194 23.7793 19.7555 23.7596 19.8694 23.6919C19.8794 23.6859 19.8824 23.6749 19.8914 23.6689C19.8344 23.6286 19.7864 23.5769 19.7504 23.5169ZM21.4694 22.4969C21.4361 22.4404 21.3918 22.391 21.3392 22.3516C21.2867 22.3122 21.2268 22.2835 21.1632 22.2674C21.0995 22.2512 21.0332 22.2478 20.9683 22.2573C20.9033 22.2669 20.8408 22.2892 20.7844 22.3229C20.7744 22.3289 20.7684 22.3389 20.7594 22.3449C20.8164 22.3849 20.8674 22.4349 20.9034 22.4969C20.9713 22.611 21.0816 22.6936 21.2102 22.7264C21.3389 22.7592 21.4752 22.7396 21.5894 22.6719C21.5994 22.6659 21.6044 22.6559 21.6144 22.6499C21.5557 22.61 21.5062 22.5578 21.4694 22.4969Z" fill="#2B8EC6"/>
<path d="M15 6.34204C15.5523 6.34204 16 5.89433 16 5.34204C16 4.78976 15.5523 4.34204 15 4.34204C14.4477 4.34204 14 4.78976 14 5.34204C14 5.89433 14.4477 6.34204 15 6.34204Z" fill="#AE89BE"/>
<path d="M23 6.34204C23.5523 6.34204 24 5.89433 24 5.34204C24 4.78976 23.5523 4.34204 23 4.34204C22.4477 4.34204 22 4.78976 22 5.34204C22 5.89433 22.4477 6.34204 23 6.34204Z" fill="#499ED7"/>
<path d="M27 16.342C27.5523 16.342 28 15.8943 28 15.342C28 14.7898 27.5523 14.342 27 14.342C26.4477 14.342 26 14.7898 26 15.342C26 15.8943 26.4477 16.342 27 16.342Z" fill="#FFCC5C"/>
<path d="M4 20.342C4.55228 20.342 5 19.8943 5 19.342C5 18.7898 4.55228 18.342 4 18.342C3.44772 18.342 3 18.7898 3 19.342C3 19.8943 3.44772 20.342 4 20.342Z" fill="#F04C4D"/>
<path d="M15 4.34204C14.8713 4.3429 14.7439 4.36871 14.625 4.41804C14.809 4.49259 14.9665 4.62036 15.0774 4.78497C15.1883 4.94958 15.2475 5.14355 15.2475 5.34204C15.2475 5.54053 15.1883 5.7345 15.0774 5.89911C14.9665 6.06372 14.809 6.19149 14.625 6.26604C14.7439 6.31537 14.8713 6.34118 15 6.34204C15.2652 6.34204 15.5196 6.23668 15.7071 6.04915C15.8946 5.86161 16 5.60726 16 5.34204C16 5.07682 15.8946 4.82247 15.7071 4.63493C15.5196 4.4474 15.2652 4.34204 15 4.34204Z" fill="#9676B5"/>
<path d="M23 4.34204C22.8713 4.3429 22.7439 4.36871 22.625 4.41804C22.809 4.49259 22.9665 4.62036 23.0774 4.78497C23.1883 4.94958 23.2475 5.14355 23.2475 5.34204C23.2475 5.54053 23.1883 5.7345 23.0774 5.89911C22.9665 6.06372 22.809 6.19149 22.625 6.26604C22.7439 6.31537 22.8713 6.34118 23 6.34204C23.2652 6.34204 23.5196 6.23668 23.7071 6.04915C23.8946 5.86161 24 5.60726 24 5.34204C24 5.07682 23.8946 4.82247 23.7071 4.63493C23.5196 4.4474 23.2652 4.34204 23 4.34204Z" fill="#2B8EC6"/>
<path d="M27 14.342C26.8713 14.3429 26.7439 14.3687 26.625 14.418C26.809 14.4926 26.9665 14.6204 27.0774 14.785C27.1883 14.9496 27.2475 15.1436 27.2475 15.342C27.2475 15.5405 27.1883 15.7345 27.0774 15.8991C26.9665 16.0637 26.809 16.1915 26.625 16.266C26.7439 16.3154 26.8713 16.3412 27 16.342C27.2652 16.342 27.5196 16.2367 27.7071 16.0491C27.8946 15.8616 28 15.6073 28 15.342C28 15.0768 27.8946 14.8225 27.7071 14.6349C27.5196 14.4474 27.2652 14.342 27 14.342Z" fill="#F7B546"/>
<path d="M4 18.342C3.87126 18.3429 3.74391 18.3687 3.625 18.418C3.80895 18.4926 3.96647 18.6204 4.07737 18.785C4.18828 18.9496 4.24752 19.1436 4.24752 19.342C4.24752 19.5405 4.18828 19.7345 4.07737 19.8991C3.96647 20.0637 3.80895 20.1915 3.625 20.266C3.74391 20.3154 3.87126 20.3412 4 20.342C4.26522 20.342 4.51957 20.2367 4.70711 20.0491C4.89464 19.8616 5 19.6073 5 19.342C5 19.0768 4.89464 18.8225 4.70711 18.6349C4.51957 18.4474 4.26522 18.342 4 18.342Z" fill="#E13340"/>
<path d="M24 26.342C24.5523 26.342 25 25.8943 25 25.342C25 24.7898 24.5523 24.342 24 24.342C23.4477 24.342 23 24.7898 23 25.342C23 25.8943 23.4477 26.342 24 26.342Z" fill="#F04C4D"/>
<path d="M24 24.342C23.8713 24.3429 23.7439 24.3687 23.625 24.418C23.809 24.4926 23.9665 24.6204 24.0774 24.785C24.1883 24.9496 24.2475 25.1436 24.2475 25.342C24.2475 25.5405 24.1883 25.7345 24.0774 25.8991C23.9665 26.0637 23.809 26.1915 23.625 26.266C23.7439 26.3154 23.8713 26.3412 24 26.342C24.2652 26.342 24.5196 26.2367 24.7071 26.0491C24.8946 25.8616 25 25.6073 25 25.342C25 25.0768 24.8946 24.8225 24.7071 24.6349C24.5196 24.4474 24.2652 24.342 24 24.342Z" fill="#E13340"/>
<path d="M26.4206 21.88C26.3018 21.8798 26.187 21.8374 26.0967 21.7602C26.0063 21.6831 25.9464 21.5763 25.9276 21.459C25.8757 21.1334 25.7937 20.8134 25.6826 20.503C25.6386 20.3778 25.6461 20.2403 25.7035 20.1206C25.7609 20.001 25.8635 19.909 25.9886 19.865C26.1138 19.821 26.2514 19.8285 26.371 19.8859C26.4907 19.9433 26.5826 20.0458 26.6266 20.171C26.7556 20.5386 26.8523 20.9167 26.9156 21.301C26.9269 21.3725 26.9225 21.4456 26.9029 21.5153C26.8832 21.585 26.8486 21.6495 26.8016 21.7046C26.7545 21.7596 26.6961 21.8038 26.6303 21.8341C26.5646 21.8643 26.493 21.88 26.4206 21.88Z" fill="#F04C4D"/>
<path d="M12.0165 7.38299C11.8936 7.38318 11.775 7.33795 11.6835 7.25599C11.5466 7.13403 11.4041 7.01857 11.2565 6.90999C11.1539 6.82976 11.0866 6.71267 11.069 6.58362C11.0514 6.45457 11.0849 6.32376 11.1623 6.219C11.2397 6.11425 11.3549 6.04383 11.4834 6.02272C11.6119 6.00162 11.7436 6.03149 11.8505 6.10599C12.023 6.23345 12.1896 6.36893 12.3495 6.51199C12.4243 6.57961 12.4769 6.66828 12.5005 6.76636C12.524 6.86444 12.5173 6.96734 12.4813 7.06155C12.4453 7.15576 12.3816 7.23688 12.2986 7.29424C12.2157 7.35161 12.1173 7.38255 12.0165 7.38299Z" fill="#499ED7"/>
<path d="M16.7941 14.858C16.6961 14.8582 16.6002 14.8296 16.5184 14.7758C16.4365 14.722 16.3722 14.6453 16.3336 14.5553C16.2949 14.4653 16.2835 14.3659 16.3009 14.2695C16.3182 14.1731 16.3635 14.0839 16.4311 14.013C17.7619 12.6204 18.5028 10.7672 18.4991 8.84097C18.4991 7.70797 18.2361 6.57097 17.7401 5.55397C17.708 5.49466 17.6883 5.42948 17.682 5.36235C17.6758 5.29521 17.6832 5.22751 17.7038 5.16332C17.7244 5.09912 17.7578 5.03976 17.802 4.9888C17.8461 4.93783 17.9001 4.89633 17.9607 4.86677C18.0213 4.83721 18.0872 4.82022 18.1546 4.8168C18.2219 4.81339 18.2893 4.82363 18.3525 4.84691C18.4158 4.87019 18.4737 4.90603 18.5228 4.95227C18.5719 4.9985 18.6111 5.05419 18.6381 5.11597C19.2028 6.27697 19.4968 7.55092 19.4981 8.84197C19.5021 11.0249 18.6623 13.1249 17.1541 14.703C17.108 14.7522 17.0522 14.7914 16.9902 14.818C16.9283 14.8447 16.8615 14.8583 16.7941 14.858Z" fill="#92CA62"/>
<path d="M8 14.842C8.27614 14.842 8.5 14.6182 8.5 14.342C8.5 14.0659 8.27614 13.842 8 13.842C7.72386 13.842 7.5 14.0659 7.5 14.342C7.5 14.6182 7.72386 14.842 8 14.842Z" fill="#92CA62"/>
</svg>
