<svg width="232" height="32" viewBox="0 0 232 32" fill="none" xmlns="http://www.w3.org/2000/svg">
<path d="M15.0331 18.4492H17.4623L13.7529 30.4022H11.1496L8.74187 21.5722L6.3341 30.4022H3.73085L0 18.4492H2.51743L5.01102 28.0588L7.54991 18.4492H10.1317L12.5609 28.0159L15.0331 18.4492Z" fill="#0E2342"/>
<path d="M20.1106 28.8505C19.026 27.6871 18.4824 26.1972 18.4824 24.3806C18.4824 22.5641 19.0212 21.0908 20.0987 19.956C21.1763 18.8213 22.5184 18.2539 24.1228 18.2539C25.0621 18.2539 25.8917 18.4685 26.6069 18.8928C27.322 19.3195 27.8751 19.8797 28.2661 20.5735V18.447H30.7597V30.4H28.2661V28.1663C27.8608 28.9029 27.303 29.4941 26.5949 29.9352C25.8869 30.3762 25.0621 30.5979 24.1228 30.5979C22.5327 30.5979 21.1929 30.0162 20.1106 28.8505ZM27.1933 27.3534C27.9085 26.6239 28.2661 25.6441 28.2661 24.414C28.2661 23.1839 27.9085 22.2088 27.1933 21.4841C26.4781 20.7618 25.6271 20.3994 24.6449 20.3994C23.6627 20.3994 22.8116 20.7546 22.0965 21.4627C21.3813 22.1707 21.0237 23.141 21.0237 24.3687C21.0237 25.5964 21.3813 26.5857 22.0965 27.3295C22.8116 28.0757 23.6627 28.4476 24.6449 28.4476C25.6271 28.4476 26.4781 28.0829 27.1933 27.3534Z" fill="#0E2342"/>
<path d="M36.4882 18.4494V20.3375C37.2844 18.95 38.5551 18.2539 40.3072 18.2539C41.6518 18.2539 42.7627 18.7021 43.6376 19.5984C44.5125 20.4948 44.9511 21.7464 44.9511 23.3508V30.4024H42.5005V23.7203C42.5005 22.6499 42.2335 21.8298 41.6971 21.2577C41.1607 20.6855 40.4312 20.4018 39.5062 20.4018C38.5813 20.4018 37.847 20.6879 37.3035 21.2577C36.7623 21.8298 36.4906 22.6499 36.4906 23.7203V30.4024H34.0184V18.4494H36.4906H36.4882Z" fill="#0E2342"/>
<path d="M48.8967 28.8515C47.812 27.6881 47.2684 26.1982 47.2684 24.3816C47.2684 22.5651 47.8072 21.0918 48.8847 19.957C49.9623 18.8223 51.3044 18.2549 52.9088 18.2549C53.8481 18.2549 54.6777 18.4695 55.3929 18.8938C56.108 19.3205 56.6611 19.8808 57.0521 20.5745V14.3477H59.5457V30.401H57.0521V28.1673C56.6468 28.9039 56.089 29.4952 55.3809 29.9362C54.6729 30.3772 53.8481 30.5989 52.9088 30.5989C51.3187 30.5989 49.979 30.0172 48.8967 28.8515ZM55.9793 27.3544C56.6945 26.6249 57.0521 25.6451 57.0521 24.415C57.0521 23.1849 56.6945 22.2099 55.9793 21.4851C55.2641 20.7628 54.4131 20.4005 53.4309 20.4005C52.4487 20.4005 51.5977 20.7557 50.8825 21.4637C50.1673 22.1717 49.8097 23.142 49.8097 24.3697C49.8097 25.5974 50.1673 26.5868 50.8825 27.3305C51.5977 28.0767 52.4487 28.4486 53.4309 28.4486C54.4131 28.4486 55.2641 28.0839 55.9793 27.3544Z" fill="#0E2342"/>
<path d="M67.8349 30.5979C66.0993 30.5979 64.6904 30.0329 63.6058 28.9053C62.5211 27.7777 61.9775 26.2806 61.9775 24.414C61.9775 22.5474 62.5258 21.055 63.6272 19.9346C64.7262 18.8141 66.147 18.2539 67.8897 18.2539C69.6323 18.2539 71.046 18.7927 72.1307 19.8702C73.2154 20.9477 73.7589 22.3543 73.7589 24.0898C73.7589 24.5093 73.7303 24.9003 73.6731 25.2603H64.5188C64.576 26.2591 64.9122 27.0506 65.5272 27.6347C66.1423 28.2211 66.9123 28.5143 67.8372 28.5143C69.1818 28.5143 70.1306 27.9589 70.6789 26.8432H73.3465C72.9841 27.9422 72.3262 28.8433 71.3726 29.5442C70.419 30.2451 69.239 30.5955 67.8372 30.5955L67.8349 30.5979ZM70.1997 21.2147C69.5632 20.6283 68.7884 20.3351 67.8778 20.3351C66.9671 20.3351 66.2042 20.6283 65.5892 21.2147C64.9741 21.8012 64.6237 22.5855 64.5379 23.5677H71.1771C71.1628 22.5855 70.8362 21.7988 70.2021 21.2147H70.1997Z" fill="#0E2342"/>
<path d="M78.6602 18.4509V20.5345C79.4254 19.0159 80.6198 18.2578 82.2385 18.2578V20.8182H81.6091C80.6389 20.8182 79.907 21.0637 79.4064 21.5548C78.9081 22.0459 78.6578 22.8993 78.6578 24.1151V30.4063H76.1857V18.4533H78.6578L78.6602 18.4509Z" fill="#0E2342"/>
<path d="M89.5501 30.5979C87.8146 30.5979 86.4057 30.0329 85.321 28.9053C84.2363 27.7777 83.6927 26.2806 83.6927 24.414C83.6927 22.5474 84.241 21.055 85.3424 19.9346C86.4414 18.8141 87.8622 18.2539 89.6049 18.2539C91.3475 18.2539 92.7612 18.7927 93.8459 19.8702C94.9306 20.9477 95.4741 22.3543 95.4741 24.0898C95.4741 24.5093 95.4455 24.9003 95.3883 25.2603H86.234C86.2912 26.2591 86.6274 27.0506 87.2424 27.6347C87.8575 28.2211 88.6275 28.5143 89.5524 28.5143C90.897 28.5143 91.8458 27.9589 92.3941 26.8432H95.0617C94.6994 27.9422 94.0414 28.8433 93.0878 29.5442C92.1342 30.2451 90.9542 30.5955 89.5524 30.5955L89.5501 30.5979ZM91.9149 21.2147C91.2784 20.6283 90.5036 20.3351 89.593 20.3351C88.6823 20.3351 87.9195 20.6283 87.3044 21.2147C86.6893 21.8012 86.3389 22.5855 86.2531 23.5677H92.8923C92.878 22.5855 92.5514 21.7988 91.9173 21.2147H91.9149Z" fill="#0E2342"/>
<path d="M100.375 18.4509V20.5345C101.141 19.0159 102.335 18.2578 103.954 18.2578V20.8182H103.324C102.354 20.8182 101.622 21.0637 101.122 21.5548C100.623 22.0459 100.373 22.8993 100.373 24.1151V30.4063H97.9009V18.4533H100.373L100.375 18.4509Z" fill="#0E2342"/>
<path d="M140.201 30.0575C139.117 28.8942 138.573 27.4042 138.573 25.5876C138.573 23.7711 139.112 22.2978 140.189 21.1631C141.267 20.0283 142.609 19.4609 144.213 19.4609C145.153 19.4609 145.982 19.6755 146.697 20.0998C147.413 20.5266 147.966 21.0868 148.357 21.7805V19.654H150.85V31.6071H148.357V29.3733C147.951 30.11 147.394 30.7012 146.686 31.1422C145.977 31.5832 145.153 31.8049 144.213 31.8049C142.623 31.8049 141.284 31.2233 140.201 30.0575ZM147.284 28.5604C147.999 27.8309 148.357 26.8511 148.357 25.621C148.357 24.3909 147.999 23.4159 147.284 22.6912C146.569 21.9688 145.718 21.6065 144.735 21.6065C143.753 21.6065 142.902 21.9617 142.187 22.6697C141.472 23.3777 141.114 24.348 141.114 25.5757C141.114 26.8034 141.472 27.7928 142.187 28.5366C142.902 29.2827 143.753 29.6546 144.735 29.6546C145.718 29.6546 146.569 29.2899 147.284 28.5604Z" fill="#0E2342"/>
<path d="M152.695 19.6562H155.342L158.727 29.397L162.112 19.6562H164.78L160.224 31.6093H157.23L152.695 19.6562Z" fill="#0E2342"/>
<path d="M171.634 31.8049C169.898 31.8049 168.489 31.2399 167.405 30.1123C166.32 28.9847 165.776 27.4876 165.776 25.621C165.776 23.7544 166.325 22.2621 167.426 21.1416C168.525 20.0212 169.946 19.4609 171.689 19.4609C173.431 19.4609 174.845 19.9997 175.93 21.0772C177.014 22.1548 177.558 23.5613 177.558 25.2968C177.558 25.7164 177.529 26.1073 177.472 26.4673H168.318C168.375 27.4662 168.711 28.2576 169.326 28.8417C169.941 29.4282 170.711 29.7214 171.636 29.7214C172.981 29.7214 173.929 29.1659 174.478 28.0502H177.145C176.783 29.1492 176.125 30.0504 175.171 30.7512C174.218 31.4521 173.038 31.8025 171.636 31.8025L171.634 31.8049ZM173.999 22.4218C173.362 21.8353 172.587 21.5421 171.677 21.5421C170.766 21.5421 170.003 21.8353 169.388 22.4218C168.773 23.0082 168.423 23.7925 168.337 24.7747H174.976C174.962 23.7925 174.635 23.0058 174.001 22.4218H173.999Z" fill="#0E2342"/>
<path d="M181.961 31.189C181.672 31.4704 181.317 31.611 180.898 31.611C180.478 31.611 180.128 31.4656 179.846 31.1771C179.565 30.8887 179.424 30.5382 179.424 30.1258C179.424 29.7134 179.565 29.363 179.846 29.0745C180.128 28.786 180.478 28.6406 180.898 28.6406C181.317 28.6406 181.67 28.786 181.961 29.0745C182.249 29.363 182.395 29.7182 182.395 30.1377C182.395 30.5573 182.249 30.9077 181.961 31.189Z" fill="#0E2342"/>
<path d="M185.887 30.1123C184.802 28.9847 184.259 27.49 184.259 25.6329C184.259 23.7759 184.805 22.2811 185.897 21.1535C186.988 20.0259 188.395 19.4609 190.116 19.4609C191.563 19.4609 192.76 19.8042 193.706 20.4908C194.653 21.1774 195.294 22.1572 195.625 23.4302H192.958C192.51 22.1715 191.561 21.5421 190.116 21.5421C189.103 21.5421 188.297 21.8997 187.696 22.6149C187.096 23.3301 186.795 24.3337 186.795 25.6186C186.795 26.9036 187.096 27.912 187.696 28.6343C188.297 29.3566 189.103 29.719 190.116 29.719C191.549 29.719 192.495 29.0896 192.958 27.8309H195.625C195.277 29.0467 194.627 30.0122 193.673 30.7274C192.719 31.4426 191.532 31.8002 190.116 31.8002C188.381 31.8002 186.972 31.2352 185.887 30.1076V30.1123Z" fill="#0E2342"/>
<path d="M203.297 31.8049C201.554 31.8049 200.119 31.2376 198.991 30.1028C197.864 28.9681 197.299 27.4781 197.299 25.6329C197.299 23.7878 197.88 22.3002 199.046 21.1631C200.209 20.0283 201.661 19.4609 203.397 19.4609C205.132 19.4609 206.582 20.0283 207.747 21.1631C208.911 22.2978 209.495 23.7854 209.495 25.621C209.495 27.4566 208.899 28.9466 207.705 30.0909C206.513 31.2328 205.044 31.8049 203.301 31.8049H203.297ZM205.867 28.6367C206.589 27.9144 206.951 26.9083 206.951 25.621C206.951 24.3337 206.601 23.3324 205.9 22.6173C205.199 21.9021 204.348 21.5445 203.351 21.5445C202.355 21.5445 201.513 21.9021 200.834 22.6173C200.155 23.3324 199.814 24.3385 199.814 25.6329C199.814 26.9274 200.148 27.9334 200.813 28.6486C201.478 29.3638 202.305 29.7214 203.297 29.7214C204.288 29.7214 205.144 29.359 205.867 28.6367Z" fill="#0E2342"/>
<path d="M214.413 19.6564V21.5445C215.21 20.157 216.48 19.4609 218.232 19.4609C219.157 19.4609 219.982 19.6779 220.705 20.1117C221.427 20.5456 221.978 21.175 222.354 21.9998C222.774 21.206 223.355 20.5838 224.102 20.1332C224.845 19.685 225.689 19.4609 226.629 19.4609C228.002 19.4609 229.132 19.9067 230.014 20.7959C230.896 21.6851 231.337 22.9391 231.337 24.5602V31.6118H228.865V24.9297C228.865 23.8593 228.598 23.0392 228.061 22.4671C227.525 21.8949 226.795 21.6112 225.871 21.6112C224.946 21.6112 224.214 21.8973 223.68 22.4671C223.143 23.0392 222.876 23.8593 222.876 24.9297V31.6118H220.426V24.9297C220.426 23.8593 220.159 23.0392 219.622 22.4671C219.086 21.8949 218.356 21.6112 217.431 21.6112C216.506 21.6112 215.772 21.8973 215.229 22.4671C214.688 23.0392 214.416 23.8593 214.416 24.9297V31.6118H211.944V19.6588H214.416L214.413 19.6564Z" fill="#0E2342"/>
<path d="M109.062 5.90546C109.248 5.7219 109.549 5.65277 109.966 5.70044C110.383 5.74574 110.815 5.84586 111.263 5.99844C111.711 6.15101 112.097 6.32742 112.419 6.52528C112.743 6.72315 112.889 6.86857 112.858 6.95916C112.61 7.87459 112.433 9.08086 112.326 10.5756C112.216 12.0703 112.157 13.6723 112.14 15.3816C112.123 17.0909 112.178 18.8073 112.302 20.5309C112.426 22.2545 112.588 23.8183 112.789 25.2225C112.989 26.6266 113.251 27.7709 113.575 28.6553C113.899 29.5398 114.262 29.9832 114.662 29.9832C114.97 29.9832 115.304 29.5779 115.659 28.7697C116.014 27.9616 116.376 26.8698 116.746 25.4966C117.115 24.1235 117.487 22.5382 117.857 20.7359C118.226 18.936 118.589 17.0503 118.944 15.0836C119.299 13.1145 119.638 11.1406 119.962 9.15714C120.286 7.17371 120.586 5.29756 120.865 3.5263C120.896 3.22116 121.135 3.06143 121.583 3.04475C122.031 3.03044 122.494 3.09004 122.973 3.22831C123.452 3.36658 123.883 3.55729 124.27 3.80045C124.656 4.046 124.832 4.30346 124.801 4.57761C124.615 5.88877 124.453 7.42403 124.315 9.1786C124.177 10.9332 124.098 12.7426 124.084 14.602C124.067 16.4639 124.129 18.2948 124.27 20.0946C124.408 21.8945 124.656 23.4965 125.011 24.9006C125.366 26.3048 125.86 27.4347 126.491 28.2882C127.123 29.1416 127.919 29.5541 128.875 29.5231C129.245 29.5231 129.6 29.2179 129.941 28.6076C130.279 27.9973 130.589 27.2035 130.866 26.2285C131.142 25.2534 131.39 24.1545 131.607 22.9339C131.822 21.7133 132.008 20.4784 132.163 19.2269C131.545 18.9527 130.928 18.5713 130.31 18.0826C129.693 17.5939 129.114 16.9907 128.575 16.2756C128.034 15.558 127.578 14.7189 127.209 13.7581C126.839 12.7974 126.608 11.7056 126.515 10.485C126.515 10.2418 126.522 9.81511 126.539 9.20244C126.553 8.59215 126.608 7.90558 126.701 7.14272C126.794 6.37987 126.932 5.58602 127.118 4.76356C127.304 3.9411 127.559 3.1854 127.884 2.49883C128.208 1.81225 128.608 1.23296 129.088 0.758557C129.567 0.286538 130.144 0.0338423 130.823 0.00285115C131.347 -0.02814 131.927 0.193565 132.559 0.665584C133.19 1.13999 133.755 1.94814 134.249 3.09243C134.742 4.23671 135.105 5.75528 135.336 7.64573C135.567 9.53857 135.543 11.8724 135.267 14.6497C135.236 14.8953 135.19 15.3363 135.128 15.9776C135.066 16.6188 134.973 17.3507 134.849 18.1756H135.128C135.87 18.1446 136.564 17.9086 137.212 17.4651C137.86 17.0241 138.454 16.4734 138.995 15.8178C139.534 15.1623 140.013 14.4519 140.43 13.689C140.847 12.9261 141.193 12.2086 141.472 11.5387C141.749 10.8688 141.958 10.3038 142.097 9.8461C142.235 9.38838 142.304 9.11423 142.304 9.02126C142.304 8.86869 142.39 8.76141 142.559 8.70181C142.728 8.64222 142.914 8.62553 143.115 8.65652C143.315 8.68751 143.501 8.7781 143.67 8.93067C143.839 9.08324 143.908 9.2978 143.877 9.57195C143.846 9.75551 143.777 10.1298 143.67 10.6924C143.56 11.2574 143.37 11.913 143.091 12.6615C142.812 13.4101 142.449 14.2015 142.004 15.0407C141.555 15.8798 141 16.6498 140.337 17.3531C139.672 18.0564 138.885 18.65 137.977 19.1387C137.067 19.6274 136.01 19.8872 134.807 19.9158H134.575C134.358 21.1364 134.082 22.4023 133.741 23.7158C133.4 25.027 133 26.2332 132.537 27.3322C132.075 28.4312 131.533 29.3467 130.916 30.0785C130.299 30.8104 129.588 31.2085 128.787 31.2681C127.645 31.3587 126.634 31.1537 125.755 30.6507C124.875 30.1477 124.112 29.4992 123.464 28.7054C122.815 27.9115 122.274 27.0342 121.843 26.0735C121.411 25.1128 121.056 24.2117 120.777 23.3725C120.498 22.5334 120.298 21.8087 120.174 21.1984C120.05 20.5881 119.988 20.2377 119.988 20.1447C119.957 20.2353 119.871 20.5952 119.733 21.2198C119.595 21.8444 119.402 22.6001 119.154 23.4846C118.906 24.369 118.613 25.3154 118.274 26.3214C117.933 27.3275 117.54 28.2524 117.094 29.0916C116.646 29.9307 116.145 30.6316 115.59 31.1966C115.034 31.7616 114.448 32.0286 113.83 31.9976C112.905 31.9666 112.102 31.6019 111.423 30.8986C110.743 30.1977 110.173 29.2656 109.711 28.107C109.248 26.9484 108.877 25.6277 108.6 24.1473C108.321 22.6669 108.121 21.1412 107.999 19.5702C107.875 17.9991 107.82 16.4496 107.837 14.9239C107.851 13.3982 107.913 12.0036 108.023 10.7353C108.13 9.46944 108.278 8.40859 108.462 7.55514C108.648 6.70169 108.848 6.15101 109.062 5.90785V5.90546ZM130.125 10.4826C130.125 10.7282 130.163 11.1072 130.239 11.6269C130.315 12.1466 130.449 12.7259 130.632 13.3672C130.818 14.0084 131.057 14.6497 131.35 15.2886C131.643 15.9299 132.005 16.4949 132.437 16.9812C132.592 15.4245 132.716 14.0752 132.806 12.9309C132.899 11.7866 132.945 11.1072 132.945 10.895C132.914 9.55288 132.89 8.32515 132.876 7.20947C132.859 6.09618 132.797 5.1426 132.69 4.34876C132.58 3.55491 132.411 2.94462 132.179 2.5179C131.948 2.09117 131.631 1.90761 131.231 1.96959C130.983 2.00059 130.79 2.2056 130.651 2.58703C130.513 2.96846 130.403 3.44048 130.327 4.00547C130.251 4.57046 130.196 5.1879 130.165 5.86017C130.134 6.53244 130.11 7.17133 130.096 7.78162C130.079 8.3919 130.079 8.94974 130.096 9.45275C130.11 9.95576 130.12 10.299 130.12 10.4826H130.125Z" fill="#078FEB"/>
<path d="M146.721 4.09715L148.454 8.42876L148.28 8.5861L145.727 5.78498L145.708 5.63717L144.43 8.10216C144.626 8.29764 145.06 9.43954 145.06 9.43954L144.864 9.61595L143.665 8.38584L141.958 8.10693L141.98 7.84231C141.98 7.84231 143.131 7.52048 143.401 7.56816L144.571 5.04834L144.445 5.11986L140.733 4.67883L140.754 4.44044L145.177 3.29615C145.177 3.29615 146.497 0.506952 147.367 0.821631V0.8264C148.121 1.36278 146.724 4.09954 146.724 4.09954L146.721 4.09715Z" fill="#0E2342"/>
</svg>
