<svg width="650" height="514" viewBox="0 0 650 514" fill="none" xmlns="http://www.w3.org/2000/svg">
<g opacity="0.03">
<path d="M19.6545 95.4672C22.63 92.5299 27.4366 91.4236 34.1124 92.1865C40.7882 92.9113 47.6928 94.5135 54.8645 96.955C62.0362 99.3964 68.2161 102.219 73.366 105.386C78.5541 108.552 80.8811 110.879 80.3851 112.328C76.4178 126.977 73.5949 146.28 71.8782 170.198C70.1235 194.116 69.1698 219.751 68.9027 247.103C68.6357 274.455 69.5131 301.921 71.4967 329.501C73.4804 357.082 76.0744 382.107 79.2788 404.575C82.4832 427.044 86.6794 445.355 91.8674 459.508C97.0555 473.66 102.854 480.756 109.263 480.756C114.184 480.756 119.524 474.271 125.208 461.339C130.892 448.407 136.691 430.935 142.603 408.962C148.516 386.989 154.467 361.621 160.38 332.782C166.293 303.981 172.091 273.806 177.775 242.335C183.459 210.825 188.876 179.239 194.064 147.5C199.252 115.762 204.059 85.7397 208.522 57.3962C209.018 52.5133 212.833 49.9574 220.005 49.6904C227.176 49.4615 234.577 50.4152 242.244 52.6278C249.912 54.8403 256.817 57.8921 262.997 61.7831C269.176 65.7123 271.999 69.8322 271.503 74.2191C268.528 95.2002 265.934 119.767 263.721 147.844C261.509 175.92 260.25 204.874 260.021 234.629C259.754 264.422 260.746 293.719 262.997 322.52C265.209 351.322 269.176 376.957 274.86 399.425C280.544 421.894 288.441 439.976 298.55 453.633C308.659 467.29 321.4 473.889 336.697 473.393C342.61 473.393 348.294 468.51 353.749 458.745C359.166 448.979 364.125 436.276 368.55 420.673C372.975 405.071 376.943 387.485 380.414 367.954C383.847 348.422 386.823 328.662 389.302 308.635C379.422 304.248 369.542 298.144 359.662 290.324C349.782 282.504 340.512 272.852 331.891 261.408C323.231 249.926 315.945 236.498 310.032 221.125C304.12 205.751 300.419 188.28 298.931 168.748C298.931 164.857 299.046 158.029 299.313 148.225C299.542 138.459 300.419 127.473 301.907 115.266C303.395 103.059 305.607 90.3555 308.583 77.1946C311.558 64.0338 315.64 51.9411 320.828 40.9546C326.016 29.9682 332.425 20.6984 340.092 13.1071C347.76 5.5539 356.992 1.51029 367.864 1.01437C376.256 0.518458 385.526 4.06616 395.635 11.6193C405.744 19.2107 414.785 32.1426 422.681 50.4534C430.578 68.7641 436.376 93.0639 440.077 123.315C443.777 153.604 443.395 190.95 438.97 235.392C438.474 239.321 437.75 246.378 436.758 256.64C435.766 266.901 434.278 278.613 432.295 291.812H436.758C448.622 291.316 459.722 287.539 470.099 280.444C480.475 273.387 489.973 264.574 498.633 254.084C507.254 243.593 514.922 232.226 521.597 220.018C528.273 207.811 533.805 196.329 538.268 185.609C542.693 174.89 546.05 165.849 548.262 158.525C550.475 151.201 551.581 146.814 551.581 145.326C551.581 142.884 552.955 141.168 555.663 140.214C558.372 139.26 561.347 138.993 564.551 139.489C567.756 139.985 570.731 141.435 573.44 143.876C576.148 146.318 577.255 149.751 576.759 154.138C576.263 157.075 575.156 163.064 573.44 172.067C571.685 181.108 568.633 191.599 564.17 203.577C559.707 215.555 553.908 228.22 546.775 241.648C539.603 255.076 530.715 267.397 520.11 278.651C509.467 289.904 496.878 299.403 482.344 307.223C467.772 315.043 450.872 319.202 431.608 319.659H427.908C424.436 339.191 420.011 359.447 414.556 380.466C409.101 401.447 402.692 420.75 395.292 438.336C387.891 455.922 379.232 470.57 369.351 482.281C359.471 493.993 348.103 500.363 335.286 501.317C317.013 502.767 300.839 499.486 286.762 491.437C272.686 483.388 260.479 473.012 250.103 460.309C239.727 447.606 231.067 433.567 224.163 418.194C217.258 402.821 211.574 388.401 207.111 374.973C202.647 361.545 199.443 349.948 197.459 340.183C195.476 330.417 194.484 324.809 194.484 323.321C193.988 324.771 192.615 330.531 190.402 340.526C188.19 350.521 185.1 362.613 181.132 376.766C177.165 390.919 172.473 406.063 167.056 422.161C161.601 438.259 155.307 453.061 148.173 466.488C141.001 479.916 132.99 491.132 124.102 500.173C115.214 509.214 105.829 513.486 95.9492 512.99C81.148 512.494 68.2923 506.658 57.4203 495.404C46.5483 484.189 37.4312 469.273 30.0306 450.734C22.63 432.194 16.679 411.06 12.2539 387.371C7.79064 363.681 4.5863 339.267 2.64079 314.128C0.657122 288.989 -0.220239 264.193 0.0467923 239.779C0.275677 215.364 1.2675 193.048 3.02228 172.754C4.73891 152.498 7.10404 135.522 10.0414 121.865C13.0169 108.208 16.2212 99.3964 19.6545 95.5054V95.4672ZM356.686 168.71C356.686 172.639 357.297 178.705 358.517 187.021C359.738 195.337 361.875 204.607 364.812 214.868C367.787 225.13 371.602 235.392 376.294 245.615C380.986 255.877 386.785 264.918 393.689 272.7C396.169 247.79 398.153 226.198 399.602 207.887C401.09 189.577 401.815 178.705 401.815 175.31C401.319 153.833 400.937 134.187 400.708 116.334C400.441 98.519 399.45 83.2601 397.733 70.557C395.978 57.8539 393.27 48.0882 389.569 41.2598C385.869 34.4314 380.796 31.4941 374.387 32.4859C370.42 32.9819 367.33 36.2625 365.117 42.3661C362.905 48.4697 361.15 56.0228 359.929 65.0638C358.708 74.1047 357.831 83.9849 357.335 94.7424C356.839 105.5 356.458 115.723 356.229 125.489C355.962 135.255 355.962 144.181 356.229 152.231C356.458 160.28 356.61 165.773 356.61 168.71H356.686Z" fill="#078FEB"/>
<path d="M622.268 66.5294L650.001 135.843L647.216 138.361L606.36 93.5377L606.055 91.1726L585.608 130.617C588.736 133.745 595.679 152.018 595.679 152.018L592.551 154.841L573.363 135.157L546.049 130.693L546.392 126.459C546.392 126.459 564.818 121.309 569.128 122.072L587.859 81.7502L585.837 82.8946L526.441 75.8373L526.785 72.0226L597.548 53.7119C597.548 53.7119 618.682 9.07944 632.606 14.1149V14.1912C644.66 22.7744 622.306 66.5675 622.306 66.5675L622.268 66.5294Z" fill="#0E2342"/>
</g>
</svg>
