<svg width="41" height="32" viewBox="0 0 41 32" fill="none" xmlns="http://www.w3.org/2000/svg">
<path d="M1.22826 5.90546C1.41421 5.7219 1.71458 5.65277 2.13177 5.70044C2.54896 5.74574 2.98045 5.84586 3.42863 5.99844C3.87681 6.15101 4.26301 6.32742 4.58484 6.52528C4.90905 6.72315 5.05447 6.86857 5.02348 6.95916C4.77555 7.87459 4.59914 9.08086 4.49186 10.5756C4.3822 12.0703 4.3226 13.6723 4.30592 15.3816C4.28923 17.0909 4.34406 18.8073 4.46802 20.5309C4.59199 22.2545 4.7541 23.8183 4.95435 25.2225C5.1546 26.6266 5.41682 27.7709 5.74104 28.6553C6.06525 29.5398 6.42762 29.9832 6.82812 29.9832C7.13565 29.9832 7.46939 29.5779 7.8246 28.7697C8.17981 27.9616 8.54216 26.8698 8.91167 25.4966C9.28118 24.1235 9.65308 22.5382 10.0226 20.7359C10.3921 18.936 10.7545 17.0503 11.1097 15.0836C11.4649 13.1145 11.8034 11.1406 12.1276 9.15714C12.4518 7.17371 12.7522 5.29756 13.0311 3.5263C13.0621 3.22116 13.3005 3.06143 13.7487 3.04475C14.1968 3.03044 14.6593 3.09004 15.1385 3.22831C15.6177 3.36658 16.0492 3.55729 16.4354 3.80045C16.8216 4.046 16.998 4.30346 16.967 4.57761C16.781 5.88877 16.6189 7.42403 16.4807 9.1786C16.3424 10.9332 16.2637 12.7426 16.2494 14.602C16.2327 16.4639 16.2947 18.2948 16.4354 20.0946C16.5736 21.8945 16.8215 23.4965 17.1768 24.9006C17.532 26.3048 18.0254 27.4347 18.6572 28.2882C19.2889 29.1416 20.0852 29.5541 21.0411 29.5231C21.4106 29.5231 21.7658 29.2179 22.1067 28.6076C22.4452 27.9973 22.7552 27.2035 23.0317 26.2285C23.3082 25.2534 23.5561 24.1545 23.7731 22.9339C23.9876 21.7133 24.1736 20.4784 24.3285 19.2269C23.7111 18.9527 23.0937 18.5713 22.4762 18.0826C21.8588 17.5939 21.2795 16.9907 20.7407 16.2756C20.1996 15.558 19.7443 14.7189 19.3747 13.7581C19.0052 12.7974 18.774 11.7056 18.681 10.485C18.681 10.2418 18.6882 9.81511 18.7049 9.20244C18.7192 8.59215 18.774 7.90558 18.867 7.14272C18.9599 6.37987 19.0982 5.58602 19.2842 4.76356C19.4701 3.9411 19.7252 3.1854 20.0494 2.49883C20.3736 1.81225 20.7741 1.23296 21.2533 0.758557C21.7325 0.286538 22.3094 0.0338423 22.9888 0.00285115C23.5132 -0.02814 24.0925 0.193565 24.7243 0.665584C25.356 1.13999 25.921 1.94814 26.4145 3.09243C26.908 4.23671 27.2703 5.75528 27.5016 7.64573C27.7328 9.53857 27.709 11.8724 27.4324 14.6497C27.4014 14.8953 27.3561 15.3363 27.2942 15.9776C27.2322 16.6188 27.1392 17.3507 27.0152 18.1756H27.2942C28.0356 18.1446 28.7293 17.9086 29.3777 17.4651C30.0261 17.0241 30.6197 16.4734 31.1609 15.8178C31.6997 15.1623 32.1788 14.4519 32.596 13.689C33.0132 12.9261 33.3589 12.2086 33.6378 11.5387C33.9143 10.8688 34.1241 10.3038 34.2624 9.8461C34.4007 9.38838 34.4698 9.11423 34.4698 9.02126C34.4698 8.86869 34.5556 8.76141 34.7249 8.70181C34.8941 8.64222 35.0801 8.62553 35.2803 8.65652C35.4806 8.68751 35.6665 8.7781 35.8358 8.93067C36.005 9.08324 36.0742 9.2978 36.0432 9.57195C36.0122 9.75551 35.9431 10.1298 35.8358 10.6924C35.7261 11.2574 35.5354 11.913 35.2565 12.6615C34.9776 13.4101 34.6152 14.2015 34.1694 15.0407C33.7212 15.8798 33.1658 16.6498 32.5031 17.3531C31.8379 18.0564 31.0512 18.65 30.143 19.1387C29.2323 19.6274 28.1762 19.8872 26.9723 19.9158H26.7411C26.5241 21.1364 26.2476 22.4023 25.9067 23.7158C25.5658 25.027 25.1653 26.2332 24.7028 27.3322C24.2403 28.4312 23.6992 29.3467 23.0818 30.0785C22.4643 30.8104 21.7539 31.2085 20.9529 31.2681C19.811 31.3587 18.8002 31.1537 17.9205 30.6507C17.0409 30.1477 16.278 29.4992 15.6296 28.7054C14.9812 27.9115 14.44 27.0342 14.0085 26.0735C13.577 25.1128 13.2218 24.2117 12.9429 23.3725C12.664 22.5334 12.4637 21.8087 12.3398 21.1984C12.2158 20.5881 12.1538 20.2377 12.1538 20.1447C12.1228 20.2353 12.037 20.5952 11.8987 21.2198C11.7605 21.8444 11.5674 22.6001 11.3194 23.4846C11.0715 24.369 10.7783 25.3154 10.4398 26.3214C10.0989 27.3275 9.70552 28.2524 9.25972 29.0916C8.81154 29.9307 8.31092 30.6316 7.75546 31.1966C7.20001 31.7616 6.61356 32.0286 5.99612 31.9976C5.07116 31.9666 4.26777 31.6019 3.58835 30.8986C2.90893 30.1977 2.33917 29.2656 1.87669 28.107C1.41421 26.9484 1.04231 25.6277 0.765778 24.1473C0.486858 22.6669 0.28661 21.1412 0.16503 19.5702C0.0410653 17.9991 -0.0137633 16.4496 0.00292418 14.9239C0.0172278 13.3982 0.0792097 12.0036 0.18887 10.7353C0.296147 9.46944 0.44395 8.40859 0.627513 7.55514C0.813459 6.70169 1.01371 6.15101 1.22826 5.90785V5.90546ZM22.2903 10.4826C22.2903 10.7282 22.3284 11.1072 22.4047 11.6269C22.481 12.1466 22.6145 12.7259 22.7981 13.3672C22.984 14.0084 23.2224 14.6497 23.5156 15.2886C23.8089 15.9299 24.1712 16.4949 24.6027 16.9812C24.7577 15.4245 24.8816 14.0752 24.9722 12.9309C25.0652 11.7866 25.1105 11.1072 25.1105 10.895C25.0795 9.55288 25.0556 8.32515 25.0413 7.20947C25.0247 6.09618 24.9627 5.1426 24.8554 4.34876C24.7457 3.55491 24.5765 2.94462 24.3452 2.5179C24.114 2.09117 23.7969 1.90761 23.3964 1.96959C23.1485 2.00059 22.9554 2.2056 22.8171 2.58703C22.6789 2.96846 22.5692 3.44048 22.4929 4.00547C22.4166 4.57046 22.3618 5.1879 22.3308 5.86017C22.2998 6.53244 22.276 7.17133 22.2617 7.78162C22.245 8.3919 22.245 8.94974 22.2617 9.45275C22.276 9.95576 22.2855 10.299 22.2855 10.4826H22.2903Z" fill="#078FEB"/>
<path d="M38.8871 4.09715L40.6202 8.42876L40.4462 8.5861L37.893 5.78498L37.8739 5.63717L36.5962 8.10216C36.7916 8.29764 37.2255 9.43954 37.2255 9.43954L37.03 9.61595L35.8309 8.38584L34.124 8.10693L34.1455 7.84231C34.1455 7.84231 35.2969 7.52048 35.5663 7.56816L36.7368 5.04834L36.6105 5.11986L32.8987 4.67883L32.9201 4.44044L37.3423 3.29615C37.3423 3.29615 38.663 0.506952 39.5332 0.821631V0.8264C40.2865 1.36278 38.8895 4.09954 38.8895 4.09954L38.8871 4.09715Z" fill="#0E2342"/>
</svg>
